<svg width="256" height="256" viewBox="0 0 256 256" xmlns="http://www.w3.org/2000/svg">
  <defs>
    <linearGradient id="fold" x1="0" y1="0" x2="1" y2="1">
      <stop offset="0" stop-color="#B6BEE6"/>
      <stop offset="1" stop-color="#8E9BD0"/>
    </linearGradient>
    <linearGradient id="page" x1="0" y1="0" x2="0" y2="1">
      <stop offset="0" stop-color="#FFFFFF"/>
      <stop offset="1" stop-color="#F2F4FB"/>
    </linearGradient>
    <linearGradient id="glyph" x1="0" y1="0" x2="0" y2="1">
      <stop offset="0" stop-color="#6E7AC6"/>
      <stop offset="1" stop-color="#343B68"/>
    </linearGradient>
    <linearGradient id="silver" x1="0" y1="0" x2="0" y2="1">
      <stop offset="0" stop-color="#F4F6FD"/>
      <stop offset="1" stop-color="#C2CAEA"/>
    </linearGradient>
    <filter id="sh" x="-25%" y="-25%" width="150%" height="150%">
      <feDropShadow dx="0" dy="5" stdDeviation="7" flood-color="#4A5286" flood-opacity="0.22"/>
    </filter>
    <filter id="glow" x="-40%" y="-40%" width="180%" height="180%">
      <feDropShadow dx="0" dy="3" stdDeviation="3.5" flood-color="#2A2F52" flood-opacity="0.38"/>
    </filter>
  </defs>

  <!-- document page with folded top-right corner; stroke keeps it visible on white -->
  <g filter="url(#sh)" stroke="#7E8AC0" stroke-width="3" stroke-linejoin="round">
    <path d="M58 40 a14 14 0 0 1 14 -14 h92 l40 40 v150
             a14 14 0 0 1 -14 14 H72 a14 14 0 0 1 -14 -14 Z" fill="url(#page)"/>
    <path d="M164 26 L204 66 L174 66 a10 10 0 0 1 -10 -10 Z" fill="url(#fold)"/>
  </g>

  <!-- magnet glyph: indigo horseshoe + silver tips -->
  <g filter="url(#glow)">
    <path d="M110 190 V152 a22 22 0 0 1 44 0 V190"
          fill="none" stroke="url(#glyph)" stroke-width="20" stroke-linecap="butt"/>
    <rect x="100" y="180" width="20" height="16" rx="2" fill="url(#silver)"/>
    <rect x="144" y="180" width="20" height="16" rx="2" fill="url(#silver)"/>
  </g>
</svg>
